<svg xmlns="http://www.w3.org/2000/svg" xmlns:xlink="http://www.w3.org/1999/xlink" width="500" zoomAndPan="magnify" viewBox="0 0 375 374.999991" height="500" preserveAspectRatio="xMidYMid meet" version="1.2"><defs/><g id="16b9b1e648"><g style="fill:#135db4;fill-opacity:1;"><g transform="translate(82.756142, 211.124165)"><path style="stroke:none" d="M 19.015625 -24 L 19.015625 -64.703125 L 33.59375 -64.703125 L 33.59375 -23.8125 C 33.59375 -17.664062 32.664062 -12.785156 30.8125 -9.171875 C 28.957031 -5.554688 26.300781 -2.945312 22.84375 -1.34375 C 19.382812 0.257812 15.289062 1.0625 10.5625 1.0625 C 8.894531 1.0625 7.066406 0.914062 5.078125 0.625 C 3.097656 0.332031 1.375 -0.0351562 -0.09375 -0.484375 L 1.53125 -12.28125 C 2.5625 -11.96875 3.710938 -11.695312 4.984375 -11.46875 C 6.265625 -11.25 7.613281 -11.140625 9.03125 -11.140625 C 12.09375 -11.140625 14.519531 -12.019531 16.3125 -13.78125 C 18.113281 -15.539062 19.015625 -18.945312 19.015625 -24 Z M 19.015625 -24 "/></g><g transform="translate(122.212139, 211.124165)"><path style="stroke:none" d="M 6.34375 0 L 6.34375 -63.84375 C 8.582031 -64.226562 11.316406 -64.546875 14.546875 -64.796875 C 17.773438 -65.054688 21.628906 -65.1875 26.109375 -65.1875 C 35.003906 -65.1875 41.597656 -63.457031 45.890625 -60 C 47.929688 -58.394531 49.59375 -56.296875 50.875 -53.703125 C 52.15625 -51.117188 52.796875 -48.226562 52.796875 -45.03125 C 52.796875 -38.5625 50.8125 -33.4375 46.84375 -29.65625 C 44.351562 -27.289062 41.316406 -25.5625 37.734375 -24.46875 C 34.148438 -23.382812 30.179688 -22.84375 25.828125 -22.84375 C 23.835938 -22.84375 22.171875 -22.941406 20.828125 -23.140625 L 20.828125 0 Z M 20.828125 -53.5625 L 20.828125 -34.46875 C 21.921875 -34.207031 23.554688 -34.078125 25.734375 -34.078125 C 29.628906 -34.078125 32.695312 -35.003906 34.9375 -36.859375 C 37.175781 -38.710938 38.296875 -41.304688 38.296875 -44.640625 C 38.296875 -47.648438 37.304688 -49.984375 35.328125 -51.640625 C 33.347656 -53.304688 30.53125 -54.140625 26.875 -54.140625 C 25.40625 -54.140625 24.15625 -54.078125 23.125 -53.953125 C 22.101562 -53.828125 21.335938 -53.695312 20.828125 -53.5625 Z M 20.828125 -53.5625 "/></g></g><g style="fill:#135db4;fill-opacity:1;"><g transform="translate(177.988146, 211.124165)"><path style="stroke:none" d="M 51.640625 -13.25 L 53.859375 -1.828125 C 52.515625 -1.179688 50.398438 -0.554688 47.515625 0.046875 C 44.640625 0.648438 41.21875 0.953125 37.25 0.953125 C 29.820312 0.953125 23.578125 -0.453125 18.515625 -3.265625 C 13.460938 -6.078125 9.671875 -9.929688 7.140625 -14.828125 C 4.617188 -19.722656 3.359375 -25.242188 3.359375 -31.390625 C 3.359375 -38.753906 4.941406 -44.992188 8.109375 -50.109375 C 11.273438 -55.234375 15.53125 -59.125 20.875 -61.78125 C 26.21875 -64.4375 32.15625 -65.765625 38.6875 -65.765625 C 42.46875 -65.765625 45.75 -65.457031 48.53125 -64.84375 C 51.3125 -64.238281 53.34375 -63.582031 54.625 -62.875 L 51.640625 -51.265625 C 50.171875 -51.898438 48.410156 -52.457031 46.359375 -52.9375 C 44.316406 -53.414062 41.984375 -53.65625 39.359375 -53.65625 C 35.515625 -53.65625 32.023438 -52.867188 28.890625 -51.296875 C 25.753906 -49.734375 23.273438 -47.367188 21.453125 -44.203125 C 19.628906 -41.035156 18.71875 -37.050781 18.71875 -32.25 C 18.71875 -25.789062 20.539062 -20.65625 24.1875 -16.84375 C 27.832031 -13.039062 32.921875 -11.140625 39.453125 -11.140625 C 41.691406 -11.140625 43.929688 -11.347656 46.171875 -11.765625 C 48.410156 -12.179688 50.234375 -12.675781 51.640625 -13.25 Z M 51.640625 -13.25 "/></g></g><g style="fill:#135db4;fill-opacity:1;"><g transform="translate(235.108156, 211.124165)"><path style="stroke:none" d="M 51.640625 -13.25 L 53.859375 -1.828125 C 52.515625 -1.179688 50.398438 -0.554688 47.515625 0.046875 C 44.640625 0.648438 41.21875 0.953125 37.25 0.953125 C 29.820312 0.953125 23.578125 -0.453125 18.515625 -3.265625 C 13.460938 -6.078125 9.671875 -9.929688 7.140625 -14.828125 C 4.617188 -19.722656 3.359375 -25.242188 3.359375 -31.390625 C 3.359375 -38.753906 4.941406 -44.992188 8.109375 -50.109375 C 11.273438 -55.234375 15.53125 -59.125 20.875 -61.78125 C 26.21875 -64.4375 32.15625 -65.765625 38.6875 -65.765625 C 42.46875 -65.765625 45.75 -65.457031 48.53125 -64.84375 C 51.3125 -64.238281 53.34375 -63.582031 54.625 -62.875 L 51.640625 -51.265625 C 50.171875 -51.898438 48.410156 -52.457031 46.359375 -52.9375 C 44.316406 -53.414062 41.984375 -53.65625 39.359375 -53.65625 C 35.515625 -53.65625 32.023438 -52.867188 28.890625 -51.296875 C 25.753906 -49.734375 23.273438 -47.367188 21.453125 -44.203125 C 19.628906 -41.035156 18.71875 -37.050781 18.71875 -32.25 C 18.71875 -25.789062 20.539062 -20.65625 24.1875 -16.84375 C 27.832031 -13.039062 32.921875 -11.140625 39.453125 -11.140625 C 41.691406 -11.140625 43.929688 -11.347656 46.171875 -11.765625 C 48.410156 -12.179688 50.234375 -12.675781 51.640625 -13.25 Z M 51.640625 -13.25 "/></g></g></g></svg>