<svg xmlns="http://www.w3.org/2000/svg" xmlns:xlink="http://www.w3.org/1999/xlink" width="500" zoomAndPan="magnify" viewBox="0 0 375 374.999991" height="500" preserveAspectRatio="xMidYMid meet" version="1.0"><defs><clipPath id="f720a8f8a0"><path d="M 6.964844 6.964844 L 367.714844 6.964844 L 367.714844 367.714844 L 6.964844 367.714844 Z M 6.964844 6.964844 " clip-rule="nonzero"/></clipPath></defs><rect x="-37.5" width="450" fill="#ffffff" y="-37.499999" height="449.999989" fill-opacity="1"/><rect x="-37.5" width="450" fill="#ffffff" y="-37.499999" height="449.999989" fill-opacity="1"/><g clip-path="url(#f720a8f8a0)"><path fill="#135db4" d="M 6.964844 277.757812 L 97.226562 277.757812 L 97.226562 368.023438 C 47.375 368.023438 6.964844 327.613281 6.964844 277.757812 Z M 368.023438 277.757812 L 277.761719 277.757812 L 277.761719 368.023438 C 327.613281 368.023438 368.023438 327.613281 368.023438 277.757812 Z M 368.023438 187.492188 C 368.023438 137.640625 327.613281 97.230469 277.761719 97.230469 L 277.761719 277.757812 C 327.613281 277.757812 368.023438 237.347656 368.023438 187.492188 Z M 277.761719 6.964844 L 277.761719 97.230469 L 368.023438 97.230469 C 368.023438 47.375 327.613281 6.964844 277.761719 6.964844 Z M 6.964844 97.230469 L 97.226562 97.230469 L 97.226562 6.964844 C 47.375 6.964844 6.964844 47.375 6.964844 97.230469 Z M 97.226562 97.230469 C 47.375 97.230469 6.964844 137.640625 6.964844 187.492188 C 6.964844 237.347656 47.375 277.757812 97.226562 277.757812 Z M 195.0625 277.441406 C 241.375 273.597656 277.761719 234.796875 277.761719 187.492188 C 277.761719 140.191406 241.375 101.390625 195.0625 97.546875 L 195.0625 97.230469 L 277.761719 97.230469 C 277.761719 47.375 237.347656 6.964844 187.496094 6.964844 L 187.496094 7.046875 C 187.496094 7.046875 187.492188 7.046875 187.492188 7.042969 L 187.492188 6.964844 C 187.191406 6.964844 186.890625 6.972656 186.585938 6.976562 C 186.511719 6.972656 186.4375 6.964844 186.359375 6.964844 C 186.304688 6.964844 186.25 6.976562 186.199219 6.980469 C 136.945312 7.671875 97.226562 47.808594 97.226562 97.230469 L 184.480469 97.230469 L 184.480469 97.285156 C 136.023438 98.871094 97.226562 138.648438 97.226562 187.496094 C 97.226562 236.339844 136.023438 276.117188 184.480469 277.703125 L 184.480469 277.761719 L 97.226562 277.761719 C 97.226562 327.613281 137.640625 368.027344 187.492188 368.027344 L 187.492188 367.867188 C 187.492188 367.867188 187.492188 367.867188 187.496094 367.867188 L 187.496094 368.027344 C 237.347656 368.027344 277.757812 327.613281 277.757812 277.757812 L 195.0625 277.757812 Z M 195.0625 277.441406 " fill-opacity="1" fill-rule="nonzero"/></g></svg>