<svg xmlns="http://www.w3.org/2000/svg" xmlns:xlink="http://www.w3.org/1999/xlink" width="500" zoomAndPan="magnify" viewBox="0 0 375 374.999991" height="500" preserveAspectRatio="xMidYMid meet" version="1.2"><defs><clipPath id="43c8a1b161"><path d="M 0.492188 4.316406 L 59.816406 4.316406 L 59.816406 63.640625 L 0.492188 63.640625 Z M 0.492188 4.316406 "/></clipPath><clipPath id="9c8342b7e4"><rect x="0" width="361" y="0" height="67"/></clipPath></defs><g id="db9cc49947"><g transform="matrix(1,0,0,1,7,149)"><g clip-path="url(#9c8342b7e4)"><g clip-rule="nonzero" clip-path="url(#43c8a1b161)"><path style=" stroke:none;fill-rule:nonzero;fill:#135db4;fill-opacity:1;" d="M 0.492188 48.953125 L 15.367188 48.953125 L 15.367188 63.832031 C 7.152344 63.832031 0.492188 57.167969 0.492188 48.953125 Z M 60.007812 48.953125 L 45.128906 48.953125 L 45.128906 63.832031 C 53.34375 63.832031 60.007812 57.167969 60.007812 48.953125 Z M 60.007812 34.074219 C 60.007812 25.855469 53.34375 19.195312 45.128906 19.195312 L 45.128906 48.953125 C 53.34375 48.953125 60.007812 42.289062 60.007812 34.074219 Z M 45.128906 4.316406 L 45.128906 19.195312 L 60.007812 19.195312 C 60.007812 10.976562 53.34375 4.316406 45.128906 4.316406 Z M 0.492188 19.195312 L 15.367188 19.195312 L 15.367188 4.316406 C 7.152344 4.316406 0.492188 10.976562 0.492188 19.195312 Z M 15.367188 19.195312 C 7.152344 19.195312 0.492188 25.855469 0.492188 34.074219 C 0.492188 42.289062 7.152344 48.953125 15.367188 48.953125 Z M 31.496094 48.898438 C 39.128906 48.265625 45.128906 41.871094 45.128906 34.074219 C 45.128906 26.277344 39.128906 19.878906 31.496094 19.246094 L 31.496094 19.195312 L 45.128906 19.195312 C 45.128906 10.976562 38.464844 4.316406 30.25 4.316406 L 30.25 4.328125 C 30.25 4.328125 30.25 4.328125 30.246094 4.328125 L 30.246094 4.316406 C 30.199219 4.316406 30.148438 4.316406 30.097656 4.316406 C 30.085938 4.316406 30.074219 4.316406 30.0625 4.316406 C 30.050781 4.316406 30.042969 4.316406 30.035156 4.316406 C 21.914062 4.433594 15.367188 11.046875 15.367188 19.195312 L 29.75 19.195312 L 29.75 19.203125 C 21.765625 19.464844 15.367188 26.023438 15.367188 34.074219 C 15.367188 42.125 21.765625 48.679688 29.75 48.941406 L 29.75 48.953125 L 15.367188 48.953125 C 15.367188 57.167969 22.03125 63.832031 30.246094 63.832031 L 30.246094 63.804688 C 30.246094 63.804688 30.25 63.804688 30.25 63.804688 L 30.25 63.832031 C 38.464844 63.832031 45.128906 57.167969 45.128906 48.953125 L 31.496094 48.953125 Z M 31.496094 48.898438 "/></g><g style="fill:#135db4;fill-opacity:1;"><g transform="translate(72.827597, 39.988463)"><path style="stroke:none" d="M 10.359375 -13.0625 L 10.359375 -35.234375 L 18.296875 -35.234375 L 18.296875 -12.96875 C 18.296875 -9.625 17.789062 -6.960938 16.78125 -4.984375 C 15.769531 -3.015625 14.320312 -1.59375 12.4375 -0.71875 C 10.5625 0.144531 8.332031 0.578125 5.75 0.578125 C 4.84375 0.578125 3.847656 0.5 2.765625 0.34375 C 1.691406 0.1875 0.753906 -0.015625 -0.046875 -0.265625 L 0.84375 -6.6875 C 1.394531 -6.519531 2.019531 -6.375 2.71875 -6.25 C 3.414062 -6.125 4.148438 -6.0625 4.921875 -6.0625 C 6.585938 -6.0625 7.910156 -6.539062 8.890625 -7.5 C 9.867188 -8.457031 10.359375 -10.3125 10.359375 -13.0625 Z M 10.359375 -13.0625 "/></g></g><g style="fill:#135db4;fill-opacity:1;"><g transform="translate(94.310446, 39.988463)"><path style="stroke:none" d="M 3.453125 0 L 3.453125 -34.765625 C 4.671875 -34.972656 6.160156 -35.144531 7.921875 -35.28125 C 9.679688 -35.425781 11.78125 -35.5 14.21875 -35.5 C 19.0625 -35.5 22.648438 -34.554688 24.984375 -32.671875 C 26.097656 -31.804688 27.003906 -30.664062 27.703125 -29.25 C 28.398438 -27.84375 28.75 -26.265625 28.75 -24.515625 C 28.75 -20.992188 27.671875 -18.207031 25.515625 -16.15625 C 24.148438 -14.863281 22.492188 -13.921875 20.546875 -13.328125 C 18.597656 -12.734375 16.4375 -12.4375 14.0625 -12.4375 C 12.976562 -12.4375 12.070312 -12.488281 11.34375 -12.59375 L 11.34375 0 Z M 11.34375 -29.171875 L 11.34375 -18.765625 C 11.9375 -18.628906 12.828125 -18.5625 14.015625 -18.5625 C 16.140625 -18.5625 17.8125 -19.066406 19.03125 -20.078125 C 20.25 -21.085938 20.859375 -22.5 20.859375 -24.3125 C 20.859375 -25.945312 20.316406 -27.21875 19.234375 -28.125 C 18.160156 -29.03125 16.628906 -29.484375 14.640625 -29.484375 C 13.835938 -29.484375 13.15625 -29.445312 12.59375 -29.375 C 12.039062 -29.3125 11.625 -29.242188 11.34375 -29.171875 Z M 11.34375 -29.171875 "/></g></g><g style="fill:#135db4;fill-opacity:1;"><g transform="translate(124.679152, 39.988463)"><path style="stroke:none" d="M 28.125 -7.21875 L 29.328125 -1 C 28.597656 -0.644531 27.445312 -0.304688 25.875 0.015625 C 24.3125 0.347656 22.445312 0.515625 20.28125 0.515625 C 16.238281 0.515625 12.835938 -0.25 10.078125 -1.78125 C 7.328125 -3.3125 5.265625 -5.410156 3.890625 -8.078125 C 2.515625 -10.742188 1.828125 -13.75 1.828125 -17.09375 C 1.828125 -21.101562 2.6875 -24.5 4.40625 -27.28125 C 6.132812 -30.070312 8.453125 -32.191406 11.359375 -33.640625 C 14.273438 -35.085938 17.507812 -35.8125 21.0625 -35.8125 C 23.125 -35.8125 24.910156 -35.644531 26.421875 -35.3125 C 27.941406 -34.976562 29.050781 -34.625 29.75 -34.25 L 28.125 -27.921875 C 27.320312 -28.265625 26.363281 -28.566406 25.25 -28.828125 C 24.132812 -29.085938 22.863281 -29.21875 21.4375 -29.21875 C 19.34375 -29.21875 17.441406 -28.789062 15.734375 -27.9375 C 14.023438 -27.082031 12.671875 -25.789062 11.671875 -24.0625 C 10.679688 -22.34375 10.1875 -20.175781 10.1875 -17.5625 C 10.1875 -14.039062 11.179688 -11.242188 13.171875 -9.171875 C 15.160156 -7.097656 17.929688 -6.0625 21.484375 -6.0625 C 22.703125 -6.0625 23.921875 -6.175781 25.140625 -6.40625 C 26.367188 -6.632812 27.363281 -6.90625 28.125 -7.21875 Z M 28.125 -7.21875 "/></g></g><g style="fill:#135db4;fill-opacity:1;"><g transform="translate(155.779637, 39.988463)"><path style="stroke:none" d="M 28.125 -7.21875 L 29.328125 -1 C 28.597656 -0.644531 27.445312 -0.304688 25.875 0.015625 C 24.3125 0.347656 22.445312 0.515625 20.28125 0.515625 C 16.238281 0.515625 12.835938 -0.25 10.078125 -1.78125 C 7.328125 -3.3125 5.265625 -5.410156 3.890625 -8.078125 C 2.515625 -10.742188 1.828125 -13.75 1.828125 -17.09375 C 1.828125 -21.101562 2.6875 -24.5 4.40625 -27.28125 C 6.132812 -30.070312 8.453125 -32.191406 11.359375 -33.640625 C 14.273438 -35.085938 17.507812 -35.8125 21.0625 -35.8125 C 23.125 -35.8125 24.910156 -35.644531 26.421875 -35.3125 C 27.941406 -34.976562 29.050781 -34.625 29.75 -34.25 L 28.125 -27.921875 C 27.320312 -28.265625 26.363281 -28.566406 25.25 -28.828125 C 24.132812 -29.085938 22.863281 -29.21875 21.4375 -29.21875 C 19.34375 -29.21875 17.441406 -28.789062 15.734375 -27.9375 C 14.023438 -27.082031 12.671875 -25.789062 11.671875 -24.0625 C 10.679688 -22.34375 10.1875 -20.175781 10.1875 -17.5625 C 10.1875 -14.039062 11.179688 -11.242188 13.171875 -9.171875 C 15.160156 -7.097656 17.929688 -6.0625 21.484375 -6.0625 C 22.703125 -6.0625 23.921875 -6.175781 25.140625 -6.40625 C 26.367188 -6.632812 27.363281 -6.90625 28.125 -7.21875 Z M 28.125 -7.21875 "/></g></g><g style="fill:#135db4;fill-opacity:1;"><g transform="translate(67.708012, 62.107474)"><path style="stroke:none" d="M 13.316406 -14.027344 L 11.800781 -13.390625 C 12.457031 -12.457031 12.878906 -11.671875 13.40625 -10.523438 L 14.996094 -11.199219 C 14.578125 -12.039062 13.847656 -13.261719 13.316406 -14.027344 Z M 15.835938 -14.90625 L 14.285156 -14.265625 C 14.960938 -13.351562 15.417969 -12.640625 16.003906 -11.488281 L 17.554688 -12.183594 C 17.117188 -12.988281 16.402344 -14.175781 15.835938 -14.90625 Z M 5.390625 -14.375 L 4.074219 -12.367188 C 5.277344 -11.691406 7.179688 -10.46875 8.203125 -9.753906 L 9.554688 -11.765625 C 8.605469 -12.421875 6.59375 -13.71875 5.390625 -14.375 Z M 2.007812 -1.40625 L 3.378906 0.988281 C 4.988281 0.695312 7.617188 -0.21875 9.480469 -1.261719 C 12.457031 -2.996094 15.050781 -5.296875 16.734375 -7.835938 L 15.328125 -10.320312 C 13.882812 -7.707031 11.324219 -5.207031 8.21875 -3.472656 C 6.246094 -2.375 4.054688 -1.753906 2.007812 -1.40625 Z M 2.574219 -10.210938 L 1.261719 -8.203125 C 2.484375 -7.542969 4.382812 -6.320312 5.425781 -5.589844 L 6.757812 -7.636719 C 5.828125 -8.292969 3.816406 -9.554688 2.574219 -10.210938 Z M 2.574219 -10.210938 "/></g></g><g style="fill:#135db4;fill-opacity:1;"><g transform="translate(85.969907, 62.107474)"><path style="stroke:none" d="M 12.183594 -3.070312 C 13.464844 -4.4375 15.308594 -7.179688 16.074219 -8.785156 L 14.613281 -9.828125 C 14.359375 -9.699219 14.011719 -9.589844 13.683594 -9.535156 C 12.96875 -9.371094 10.414062 -8.878906 8.09375 -8.441406 L 7.597656 -10.210938 C 7.488281 -10.6875 7.378906 -11.160156 7.308594 -11.601562 L 4.859375 -11.015625 C 5.058594 -10.632812 5.242188 -10.191406 5.371094 -9.71875 C 5.5 -9.316406 5.664062 -8.730469 5.84375 -8.019531 C 5.003906 -7.855469 4.347656 -7.746094 4.09375 -7.707031 C 3.488281 -7.597656 2.996094 -7.542969 2.410156 -7.488281 L 2.976562 -5.296875 C 3.527344 -5.425781 4.859375 -5.699219 6.394531 -6.027344 C 7.050781 -3.527344 7.800781 -0.695312 8.074219 0.292969 C 8.21875 0.804688 8.347656 1.40625 8.402344 1.882812 L 10.886719 1.277344 C 10.742188 0.914062 10.503906 0.109375 10.394531 -0.21875 C 10.101562 -1.167969 9.335938 -3.980469 8.640625 -6.484375 C 10.613281 -6.90625 12.421875 -7.269531 12.859375 -7.363281 C 12.367188 -6.464844 11.105469 -4.914062 10.175781 -4.074219 Z M 12.183594 -3.070312 "/></g></g><g style="fill:#135db4;fill-opacity:1;"><g transform="translate(104.231802, 62.107474)"><path style="stroke:none" d="M 14.632812 -13.132812 C 14.632812 -13.71875 15.105469 -14.195312 15.691406 -14.195312 C 16.277344 -14.195312 16.75 -13.71875 16.75 -13.132812 C 16.75 -12.566406 16.277344 -12.09375 15.691406 -12.09375 C 15.105469 -12.09375 14.632812 -12.566406 14.632812 -13.132812 Z M 13.5 -13.132812 C 13.5 -11.945312 14.484375 -10.960938 15.691406 -10.960938 C 16.898438 -10.960938 17.882812 -11.945312 17.882812 -13.132812 C 17.882812 -14.339844 16.898438 -15.328125 15.691406 -15.328125 C 14.484375 -15.328125 13.5 -14.339844 13.5 -13.132812 Z M 3.507812 -5.679688 C 2.886719 -4.074219 1.808594 -2.101562 0.65625 -0.601562 L 3.214844 0.476562 C 4.183594 -0.894531 5.261719 -2.976562 5.917969 -4.75 C 6.539062 -6.449219 7.214844 -8.96875 7.472656 -10.246094 C 7.542969 -10.648438 7.746094 -11.542969 7.910156 -12.074219 L 5.242188 -12.621094 C 5.023438 -10.300781 4.328125 -7.726562 3.507812 -5.679688 Z M 12.53125 -6.066406 C 13.261719 -4.09375 13.917969 -1.789062 14.429688 0.382812 L 17.132812 -0.492188 C 16.625 -2.300781 15.65625 -5.222656 14.996094 -6.867188 C 14.320312 -8.640625 13.0625 -11.433594 12.3125 -12.859375 L 9.882812 -12.074219 C 10.648438 -10.6875 11.835938 -7.984375 12.53125 -6.066406 Z M 12.53125 -6.066406 "/></g></g><g style="fill:#135db4;fill-opacity:1;"><g transform="translate(122.493697, 62.107474)"><path style="stroke:none" d="M 4.402344 -13.882812 L 2.683594 -12.054688 C 4.019531 -11.125 6.300781 -9.132812 7.253906 -8.109375 L 9.117188 -10.027344 C 8.054688 -11.125 5.679688 -13.023438 4.402344 -13.882812 Z M 2.117188 -1.71875 L 3.652344 0.695312 C 6.230469 0.253906 8.585938 -0.765625 10.429688 -1.882812 C 13.371094 -3.652344 15.800781 -6.175781 17.1875 -8.640625 L 15.765625 -11.214844 C 14.613281 -8.75 12.222656 -5.957031 9.117188 -4.109375 C 7.34375 -3.050781 4.96875 -2.117188 2.117188 -1.71875 Z M 2.117188 -1.71875 "/></g></g><g style="fill:#135db4;fill-opacity:1;"><g transform="translate(140.755592, 62.107474)"><path style="stroke:none" d="M 14.558594 -12.511719 C 14.140625 -12.386719 13.535156 -12.292969 12.96875 -12.292969 L 9.296875 -12.292969 L 9.351562 -12.386719 C 9.570312 -12.785156 10.027344 -13.609375 10.46875 -14.25 L 7.800781 -15.125 C 7.636719 -14.503906 7.253906 -13.664062 6.976562 -13.207031 C 6.066406 -11.636719 4.476562 -9.28125 1.277344 -7.324219 L 3.324219 -5.808594 C 5.113281 -7.03125 6.703125 -8.640625 7.929688 -10.230469 L 13.0625 -10.230469 C 12.769531 -8.859375 11.710938 -6.667969 10.46875 -5.242188 C 8.878906 -3.433594 6.851562 -1.84375 3.105469 -0.730469 L 5.261719 1.207031 C 8.695312 -0.164062 10.90625 -1.828125 12.640625 -3.945312 C 14.285156 -5.992188 15.328125 -8.421875 15.820312 -10.046875 C 15.964844 -10.503906 16.222656 -11.015625 16.421875 -11.363281 Z M 14.558594 -12.511719 "/></g></g><g style="fill:#135db4;fill-opacity:1;"><g transform="translate(159.017487, 62.107474)"><path style="stroke:none" d="M 5.277344 0.765625 C 5.71875 0.492188 6.121094 0.367188 6.375 0.273438 C 10.667969 -1.132812 14.46875 -3.304688 16.96875 -6.300781 L 15.671875 -8.367188 C 13.335938 -5.515625 9.261719 -3.179688 6.285156 -2.339844 L 6.285156 -11.820312 C 6.285156 -12.53125 6.355469 -13.1875 6.464844 -13.882812 L 3.597656 -13.882812 C 3.707031 -13.371094 3.800781 -12.511719 3.800781 -11.820312 L 3.800781 -1.917969 C 3.800781 -1.496094 3.78125 -1.1875 3.5625 -0.730469 Z M 5.277344 0.765625 "/></g></g><g style="fill:#135db4;fill-opacity:1;"><g transform="translate(177.279382, 62.107474)"><path style="stroke:none" d="M 13.316406 -14.027344 L 11.800781 -13.390625 C 12.457031 -12.457031 12.878906 -11.671875 13.40625 -10.523438 L 14.996094 -11.199219 C 14.578125 -12.039062 13.847656 -13.261719 13.316406 -14.027344 Z M 15.835938 -14.90625 L 14.285156 -14.265625 C 14.960938 -13.351562 15.417969 -12.640625 16.003906 -11.488281 L 17.554688 -12.183594 C 17.117188 -12.988281 16.402344 -14.175781 15.835938 -14.90625 Z M 5.390625 -14.375 L 4.074219 -12.367188 C 5.277344 -11.691406 7.179688 -10.46875 8.203125 -9.753906 L 9.554688 -11.765625 C 8.605469 -12.421875 6.59375 -13.71875 5.390625 -14.375 Z M 2.007812 -1.40625 L 3.378906 0.988281 C 4.988281 0.695312 7.617188 -0.21875 9.480469 -1.261719 C 12.457031 -2.996094 15.050781 -5.296875 16.734375 -7.835938 L 15.328125 -10.320312 C 13.882812 -7.707031 11.324219 -5.207031 8.21875 -3.472656 C 6.246094 -2.375 4.054688 -1.753906 2.007812 -1.40625 Z M 2.574219 -10.210938 L 1.261719 -8.203125 C 2.484375 -7.542969 4.382812 -6.320312 5.425781 -5.589844 L 6.757812 -7.636719 C 5.828125 -8.292969 3.816406 -9.554688 2.574219 -10.210938 Z M 2.574219 -10.210938 "/></g></g><g style="fill:#135db4;fill-opacity:1;"><g transform="translate(195.541277, 62.107474)"><path style="stroke:none" d="M 9.226562 -10.867188 L 7.050781 -10.15625 C 7.507812 -9.207031 8.3125 -6.996094 8.53125 -6.101562 L 10.722656 -6.867188 C 10.46875 -7.707031 9.570312 -10.082031 9.226562 -10.867188 Z M 13.390625 -10.359375 C 13.1875 -8.074219 12.3125 -5.644531 11.070312 -4.09375 C 9.554688 -2.191406 7.015625 -0.804688 5.003906 -0.273438 L 6.921875 1.679688 C 9.058594 0.875 11.34375 -0.65625 13.042969 -2.851562 C 14.285156 -4.457031 15.050781 -6.355469 15.527344 -8.203125 C 15.636719 -8.566406 15.746094 -8.949219 15.964844 -9.535156 Z M 4.988281 -9.902344 L 2.792969 -9.117188 C 3.234375 -8.3125 4.148438 -5.882812 4.457031 -4.894531 L 6.6875 -5.734375 C 6.320312 -6.757812 5.445312 -8.96875 4.988281 -9.902344 Z M 4.988281 -9.902344 "/></g></g><g style="fill:#135db4;fill-opacity:1;"><g transform="translate(213.803171, 62.107474)"><path style="stroke:none" d="M 15.875 -6.722656 C 14.195312 -7.542969 10.6875 -8.839844 8.238281 -9.554688 L 8.238281 -12.238281 C 8.238281 -13.007812 8.328125 -13.808594 8.402344 -14.449219 L 5.554688 -14.449219 C 5.679688 -13.808594 5.734375 -12.898438 5.734375 -12.238281 L 5.734375 -1.753906 C 5.734375 -1.023438 5.664062 0.0742188 5.554688 0.785156 L 8.402344 0.785156 C 8.328125 0.0546875 8.238281 -1.222656 8.238281 -1.753906 L 8.238281 -6.921875 C 10.210938 -6.246094 12.953125 -5.1875 14.832031 -4.203125 Z M 15.875 -6.722656 "/></g></g><g style="fill:#135db4;fill-opacity:1;"><g transform="translate(232.065066, 62.107474)"><path style="stroke:none" d="M 14.359375 -11.507812 C 13.902344 -11.433594 13.425781 -11.378906 12.96875 -11.378906 L 9.535156 -11.378906 C 9.570312 -11.910156 9.589844 -12.457031 9.609375 -13.023438 C 9.625 -13.464844 9.664062 -14.230469 9.71875 -14.648438 L 7.03125 -14.648438 C 7.105469 -14.210938 7.160156 -13.371094 7.160156 -12.96875 C 7.160156 -12.421875 7.140625 -11.890625 7.125 -11.378906 L 4.511719 -11.378906 C 3.816406 -11.378906 2.867188 -11.433594 2.101562 -11.507812 L 2.101562 -9.117188 C 2.886719 -9.1875 3.890625 -9.1875 4.511719 -9.1875 L 6.921875 -9.1875 C 6.519531 -6.410156 5.609375 -4.367188 3.910156 -2.683594 C 3.179688 -1.9375 2.285156 -1.316406 1.515625 -0.894531 L 3.636719 0.820312 C 6.90625 -1.496094 8.640625 -4.367188 9.316406 -9.1875 L 13.425781 -9.1875 C 13.425781 -7.214844 13.1875 -3.5625 12.660156 -2.410156 C 12.457031 -1.972656 12.203125 -1.773438 11.617188 -1.773438 C 10.90625 -1.773438 9.957031 -1.863281 9.058594 -2.027344 L 9.335938 0.421875 C 10.230469 0.492188 11.324219 0.566406 12.367188 0.566406 C 13.628906 0.566406 14.320312 0.0898438 14.722656 -0.839844 C 15.507812 -2.703125 15.726562 -7.800781 15.800781 -9.773438 C 15.800781 -9.972656 15.875 -10.429688 15.929688 -10.742188 Z M 14.359375 -11.507812 "/></g></g><g style="fill:#135db4;fill-opacity:1;"><g transform="translate(250.326961, 62.107474)"><path style="stroke:none" d="M 1.679688 -5.589844 C 2.355469 -5.644531 3.582031 -5.679688 4.621094 -5.679688 L 14.429688 -5.679688 C 15.199219 -5.679688 16.128906 -5.609375 16.570312 -5.589844 L 16.570312 -8.457031 C 16.09375 -8.421875 15.269531 -8.347656 14.429688 -8.347656 L 4.621094 -8.347656 C 3.671875 -8.347656 2.339844 -8.402344 1.679688 -8.457031 Z M 1.679688 -5.589844 "/></g></g><g style="fill:#135db4;fill-opacity:1;"><g transform="translate(268.588856, 62.107474)"><path style="stroke:none" d="M 16.570312 -11.890625 C 16.148438 -12.714844 15.382812 -13.863281 14.851562 -14.59375 L 13.335938 -13.882812 C 14.011719 -12.96875 14.449219 -12.292969 15.035156 -11.144531 Z M 14.121094 -10.832031 C 13.699219 -11.65625 12.96875 -12.824219 12.457031 -13.589844 L 10.921875 -12.933594 C 11.601562 -12 12 -11.269531 12.53125 -10.121094 Z M 7.671875 -11.984375 C 7.671875 -12.75 7.761719 -13.554688 7.835938 -14.195312 L 4.988281 -14.195312 C 5.113281 -13.535156 5.167969 -12.640625 5.167969 -11.984375 L 5.167969 -1.480469 C 5.167969 -0.765625 5.097656 0.347656 4.988281 1.058594 L 7.855469 1.058594 C 7.761719 0.308594 7.671875 -0.96875 7.671875 -1.480469 L 7.671875 -6.648438 C 9.644531 -5.992188 12.386719 -4.933594 14.285156 -3.925781 L 15.308594 -6.464844 C 13.628906 -7.289062 10.101562 -8.585938 7.671875 -9.316406 Z M 7.671875 -11.984375 "/></g></g><g style="fill:#135db4;fill-opacity:1;"><g transform="translate(286.850751, 62.107474)"><path style="stroke:none" d="M 7.433594 -6.230469 C 7.140625 -6.757812 5.808594 -8.859375 5.277344 -9.535156 L 5.277344 -10.066406 L 7.363281 -10.066406 L 7.363281 -12.074219 L 5.277344 -12.074219 L 5.277344 -15.472656 L 3.160156 -15.472656 L 3.160156 -12.074219 L 0.785156 -12.074219 L 0.785156 -10.066406 L 3.03125 -10.066406 C 2.503906 -7.875 1.515625 -5.296875 0.421875 -3.890625 C 0.765625 -3.304688 1.242188 -2.320312 1.441406 -1.699219 C 2.082031 -2.648438 2.667969 -4 3.160156 -5.515625 L 3.160156 1.570312 L 5.277344 1.570312 L 5.277344 -6.832031 C 5.644531 -6.066406 5.992188 -5.277344 6.191406 -4.769531 Z M 17.519531 -5.898438 L 17.519531 -7.855469 L 13.644531 -7.855469 L 13.644531 -10.359375 L 17.0625 -10.359375 L 17.0625 -12.3125 L 13.644531 -12.3125 L 13.644531 -15.453125 L 11.507812 -15.453125 L 11.507812 -12.3125 L 10.375 -12.3125 C 10.523438 -12.933594 10.632812 -13.574219 10.742188 -14.230469 L 8.75 -14.578125 C 8.476562 -12.53125 7.945312 -10.503906 7.03125 -9.226562 C 7.507812 -8.988281 8.367188 -8.457031 8.730469 -8.148438 C 9.132812 -8.75 9.5 -9.515625 9.808594 -10.359375 L 11.507812 -10.359375 L 11.507812 -7.855469 L 7.507812 -7.855469 L 7.507812 -5.898438 L 10.523438 -5.898438 C 9.570312 -3.871094 8.019531 -1.953125 6.300781 -0.914062 C 6.757812 -0.511719 7.433594 0.253906 7.761719 0.75 C 9.226562 -0.308594 10.503906 -1.953125 11.507812 -3.835938 L 11.507812 1.570312 L 13.644531 1.570312 L 13.644531 -4 C 14.414062 -2.171875 15.398438 -0.476562 16.457031 0.621094 C 16.804688 0.0898438 17.535156 -0.675781 18.03125 -1.078125 C 16.734375 -2.171875 15.453125 -4.035156 14.648438 -5.898438 Z M 17.519531 -5.898438 "/></g></g><g style="fill:#135db4;fill-opacity:1;"><g transform="translate(305.112646, 62.107474)"><path style="stroke:none" d="M 6.59375 -6.066406 L 9.515625 -6.066406 L 9.515625 -8.164062 L 1.679688 -8.164062 L 1.679688 -6.066406 L 4.4375 -6.066406 L 4.4375 -1.664062 C 3.125 -1.441406 1.917969 -1.261719 0.988281 -1.113281 L 1.589844 1.078125 C 3.945312 0.585938 7.160156 -0.0898438 10.15625 -0.75 L 9.992188 -2.683594 C 8.878906 -2.464844 7.707031 -2.246094 6.59375 -2.046875 Z M 17.316406 -10.246094 L 17.316406 -12.367188 L 15.601562 -12.367188 L 16.84375 -13.445312 C 16.347656 -14.046875 15.269531 -14.90625 14.449219 -15.472656 L 13.007812 -14.285156 C 13.738281 -13.738281 14.648438 -12.988281 15.144531 -12.367188 L 12.257812 -12.367188 C 12.222656 -13.351562 12.222656 -14.375 12.238281 -15.382812 L 9.902344 -15.382812 C 9.902344 -14.375 9.917969 -13.351562 9.957031 -12.367188 L 0.988281 -12.367188 L 0.988281 -10.246094 L 10.066406 -10.246094 C 10.503906 -3.816406 11.875 1.589844 14.996094 1.589844 C 16.734375 1.589844 17.464844 0.75 17.792969 -2.703125 C 17.1875 -2.921875 16.386719 -3.472656 15.890625 -3.980469 C 15.800781 -1.664062 15.582031 -0.695312 15.199219 -0.695312 C 13.863281 -0.695312 12.75 -4.914062 12.367188 -10.246094 Z M 17.316406 -10.246094 "/></g></g><g style="fill:#135db4;fill-opacity:1;"><g transform="translate(323.374541, 62.107474)"><path style="stroke:none" d="M 10.996094 -3.324219 C 11.527344 -2.832031 12.054688 -2.265625 12.566406 -1.699219 L 6.210938 -1.332031 C 7.234375 -2.246094 8.238281 -3.304688 9.078125 -4.347656 L 16.75 -4.347656 L 16.75 -6.449219 L 1.644531 -6.449219 L 1.644531 -4.347656 L 6.066406 -4.347656 C 5.078125 -3.140625 4.09375 -2.15625 3.652344 -1.828125 C 3.085938 -1.332031 2.683594 -1.042969 2.210938 -0.929688 C 2.464844 -0.308594 2.832031 0.804688 2.941406 1.277344 C 3.835938 0.929688 5.097656 0.859375 14.101562 0.199219 C 14.46875 0.695312 14.777344 1.167969 14.996094 1.589844 L 16.933594 0.402344 C 16.128906 -0.96875 14.449219 -2.886719 12.859375 -4.273438 Z M 6.121094 -9.972656 C 7.214844 -10.742188 8.257812 -11.5625 9.171875 -12.476562 C 10.066406 -11.636719 11.199219 -10.777344 12.402344 -9.972656 Z M 9.058594 -15.5625 C 7.324219 -13.226562 4.019531 -10.996094 0.546875 -9.679688 C 1.058594 -9.242188 1.789062 -8.292969 2.101562 -7.746094 C 3.085938 -8.183594 4 -8.675781 4.894531 -9.1875 L 4.894531 -7.984375 L 13.425781 -7.984375 L 13.425781 -9.335938 C 14.339844 -8.804688 15.308594 -8.3125 16.257812 -7.929688 C 16.605469 -8.511719 17.300781 -9.390625 17.773438 -9.847656 C 15.089844 -10.703125 12.203125 -12.347656 10.429688 -13.847656 C 10.632812 -14.101562 10.832031 -14.359375 11.035156 -14.613281 Z M 9.058594 -15.5625 "/></g></g><g style="fill:#135db4;fill-opacity:1;"><g transform="translate(341.636436, 62.107474)"><path style="stroke:none" d="M 8.054688 -5.570312 C 7.691406 -5.917969 6.375 -7.199219 5.625 -7.855469 C 6.464844 -9.023438 7.214844 -10.339844 7.726562 -11.671875 L 6.578125 -12.511719 L 6.210938 -12.421875 L 4.511719 -12.421875 L 5.957031 -13.261719 C 5.625 -13.917969 4.933594 -14.871094 4.292969 -15.5625 L 2.574219 -14.667969 C 3.140625 -13.992188 3.726562 -13.097656 4.054688 -12.421875 L 0.859375 -12.421875 L 0.859375 -10.46875 L 5.023438 -10.46875 C 3.925781 -8.53125 2.15625 -6.742188 0.328125 -5.734375 C 0.585938 -5.335938 1.003906 -4.128906 1.152344 -3.527344 C 1.863281 -3.945312 2.539062 -4.511719 3.234375 -5.132812 L 3.234375 1.589844 L 5.371094 1.589844 L 5.371094 -5.535156 C 5.882812 -4.914062 6.394531 -4.238281 6.703125 -3.761719 Z M 13.753906 -1.132812 L 13.753906 -7.910156 L 17.207031 -7.910156 L 17.207031 -10.011719 L 13.753906 -10.011719 L 13.753906 -15.363281 L 11.507812 -15.363281 L 11.507812 -10.011719 L 7.910156 -10.011719 L 7.910156 -7.910156 L 11.507812 -7.910156 L 11.507812 -1.132812 L 7.105469 -1.132812 L 7.105469 1.023438 L 17.644531 1.023438 L 17.644531 -1.132812 Z M 13.753906 -1.132812 "/></g></g></g></g></g></svg>